<?xml version="1.0" standalone="no"?>
<!DOCTYPE svg PUBLIC "-//W3C//DTD SVG 20010904//EN"
 "http://www.w3.org/TR/2001/REC-SVG-20010904/DTD/svg10.dtd">
<svg version="1.0" xmlns="http://www.w3.org/2000/svg"
 width="240.000000pt" height="240.000000pt" viewBox="0 0 240.000000 240.000000"
 preserveAspectRatio="xMidYMid meet">
<metadata>
Created by potrace 1.11, written by Peter Selinger 2001-2013
</metadata>
<g transform="translate(0.000000,240.000000) scale(0.100000,-0.100000)"
fill="#000000" stroke="none">
<path d="M687 2192 c-18 -24 -30 -60 -36 -104 -5 -37 -12 -72 -16 -78 -3 -5
-30 -10 -58 -10 -89 0 -150 -57 -163 -151 -5 -36 60 -699 82 -840 5 -33 3 -37
-22 -43 l-27 -7 7 -82 c3 -45 6 -94 6 -109 0 -23 9 -31 60 -57 l61 -29 100 36
101 37 -7 100 -7 101 47 110 c54 129 53 154 -12 174 -21 7 -42 17 -48 22 -5 5
-17 101 -25 214 -12 165 -13 207 -3 216 19 15 739 -234 773 -268 22 -22 26
-36 31 -122 4 -53 7 -146 8 -206 l1 -108 -32 7 c-61 14 -83 12 -86 -10 -1 -11
25 -90 59 -175 34 -85 65 -182 70 -215 7 -53 6 -62 -11 -77 -18 -14 -20 -29
-20 -137 l0 -121 70 -35 c38 -19 79 -35 90 -35 11 0 52 16 92 36 45 23 79 34
93 30 12 -3 30 0 39 7 17 12 19 51 27 473 5 252 10 520 11 594 3 132 2 136
-26 190 -38 73 -50 86 -112 115 -71 34 -79 50 -64 132 20 104 2 171 -54 208
-27 18 -908 255 -947 255 -19 0 -33 -10 -52 -38z m-55 -1165 c29 -13 59 -31
66 -40 17 -19 35 -188 22 -201 -6 -6 -32 -2 -70 9 l-60 18 0 47 c0 34 -5 52
-20 65 -15 13 -20 31 -20 65 0 69 4 71 82 37z m1135 -468 c44 -17 56 -51 51
-144 -3 -47 -8 -88 -11 -91 -3 -4 -26 2 -51 11 l-45 17 -3 57 c-3 53 -5 57
-40 76 -33 18 -38 25 -38 57 0 66 5 70 63 46 29 -11 62 -24 74 -29z"/>
</g>
</svg>
